# xmcd
#
# Track frame offsets: 
#        150
#        10781
#        14217
#        21799
#        31297
#        34114
#        44596
#        47478
#        54132
#        66957
#        70909
#        74756
#        92824
#        102898
#        111802
#        134685
#        138693
#        142260
#        149227
#        152242
#        159655
#        171283
#        192630
#        196738
#        211643
#        218022
#        233666
#        257081
#        259946
#
# Disc length: 3628 seconds
#
# Revision: 1
# Processed by: cddbd v1.5.2PL0 Copyright (c) Steve Scherf et al.
# Submitted via: ExactAudioCopy v1.0b6
#
DISCID=c10e2a1d
DTITLE=Markus Schäfer, Andrea Lauren Brown, Etc. - Franz Hauk: Concerto
DTITLE=De Bassus - MAYR: Saffo (2014)
DYEAR=2016
DGENRE=Classical
TTITLE0=Mayr: Saffo - Act 2: Sciogli Gli Accenti Tuoi
TTITLE1=Mayr: Saffo - Act 2: Vati, Stranier, Teori
TTITLE2=Mayr: Saffo - Act 2: Nume Del Ciel Che Sei
TTITLE3=Mayr: Saffo - Act 2: Langue D'Amor Quest'Alma
TTITLE4=Mayr: Saffo - Act 2: E Tu Perche Non Sciogli
TTITLE5=Mayr: Saffo - Act 2: Cessa Di Piangere Per Un Ingrato
TTITLE6=Mayr: Saffo - Act 2: Cosi Piacesse Al Nume
TTITLE7=Mayr: Saffo - Act 2: Piacesse A Te Svelar Quando
TTITLE8=Mayr: Saffo - Act 2: Soave, Dolce, Cara E La Morte
TTITLE9=Mayr: Saffo - Act 2: Eppur Mi Fa Pieta Quell'Infelice
TTITLE10=Mayr: Saffo - Act 2: Odi Il Funesto Grido
TTITLE11=Mayr: Saffo - Act 2: Palpitante… Agitata… Tremante
TTITLE12=Mayr: Saffo - Act 2: Saffo, E Che Ti Spaventa?
TTITLE13=Mayr: Saffo - Act 2: Quanti, Crudeli, Siete Contro Di Me?
TTITLE14=Mayr: Saffo - Act 2: Tacito E Mesto In Volto
TTITLE15=Mayr: Saffo - Act 2: T'Arresti Ancor!
TTITLE16=Mayr: Saffo - Act 2: Rispetta I Giorni Tuoi
TTITLE17=Mayr: Saffo - Act 2: Nato Son Gia Alle Lagrime
TTITLE18=Mayr: Saffo - Act 2: Saffo, Non Ti Smarir
TTITLE19=Mayr: Saffo - Act 2: La Dolce Speranza Disgombri Il Duol
TTITLE20=Mayr: Saffo - Act 2: E Quel Pianto, Quel Duolo
TTITLE21=Mayr: Saffo - Act 2: Pallida Morte, Vieni: Guidami
TTITLE22=Mayr: Saffo - Act 2: Andiam, Miei Fidi
TTITLE23=Mayr: Saffo - Act 2: Ciascun Mi Fugge
TTITLE24=Mayr: Saffo - Act 2: Dormi, Riposa Bell'Alma Amorosa
TTITLE25=Mayr: Saffo - Act 2: Vuoi Ch'Io La Salvi!… Oh, Dio
TTITLE26=Mayr: Saffo - Act 2: Dille… Ma No… Vorrei…
TTITLE27=Mayr: Saffo - Act 2: Tutto Svani. Per Questa Volta Invano
TTITLE28=Mayr: Saffo - Act 2: Vivi Leggiadra E Bella
EXTD=
EXTT0=
EXTT1=
EXTT2=
EXTT3=
EXTT4=
EXTT5=
EXTT6=
EXTT7=
EXTT8=
EXTT9=
EXTT10=
EXTT11=
EXTT12=
EXTT13=
EXTT14=
EXTT15=
EXTT16=
EXTT17=
EXTT18=
EXTT19=
EXTT20=
EXTT21=
EXTT22=
EXTT23=
EXTT24=
EXTT25=
EXTT26=
EXTT27=
EXTT28=
PLAYORDER=
